<svg width="24" height="24" viewBox="0 0 24 24" fill="none" xmlns="http://www.w3.org/2000/svg">
<path d="M10.02 23.88C4.32 22.86 0 17.94 0 12C0 5.4 5.4 0 12 0C18.6 0 24 5.4 24 12C24 17.94 19.68 22.86 13.98 23.88L13.32 23.34H10.68L10.02 23.88Z" fill="url(#paint0_linear_1392_17146)"/>
<path d="M16.6801 15.3597L17.2201 11.9997H14.0401V9.65969C14.0401 8.69969 14.4001 7.97969 15.8401 7.97969H17.4001V4.91969C16.5601 4.79969 15.6001 4.67969 14.7601 4.67969C12.0001 4.67969 10.0801 6.35969 10.0801 9.35969V11.9997H7.08008V15.3597H10.0801V23.8197C10.7401 23.9397 11.4001 23.9997 12.0601 23.9997C12.7201 23.9997 13.3801 23.9397 14.0401 23.8197V15.3597H16.6801Z" fill="white"/>
<defs>
<linearGradient id="paint0_linear_1392_17146" x1="12.0006" y1="23.1654" x2="12.0006" y2="-0.00442066" gradientUnits="userSpaceOnUse">
<stop stop-color="#0062E0"/>
<stop offset="1" stop-color="#19AFFF"/>
</linearGradient>
</defs>
</svg>
